<svg id="SvgjsSvg1000" xmlns="http://www.w3.org/2000/svg" version="1.1" xmlns:xlink="http://www.w3.org/1999/xlink" xmlns:svgjs="http://svgjs.com/svgjs" width="18" height="14" viewBox="0 0 18 14"><title>arrow-left-circle - simple-line-icons</title><desc>Created with Avocode.</desc><defs id="SvgjsDefs1001"></defs><path id="SvgjsPath1007" d="M231.37 442.84H219.07L223.03 438.88C223.24 438.67 223.34 438.42 223.34 438.11C223.34 437.8 223.24 437.55 223.03 437.34000000000003C222.8 437.11 222.54 437.00000000000006 222.25 437.00000000000006C221.95 437.00000000000006 221.69 437.11000000000007 221.46 437.34000000000003L215 443.97L221.46 450.6C221.57000000000002 450.69 221.70000000000002 450.77000000000004 221.84 450.83000000000004C221.97 450.88000000000005 222.11 450.91 222.25 450.91C222.38 450.91 222.52 450.88000000000005 222.66 450.83000000000004C222.79 450.77000000000004 222.92 450.69000000000005 223.03 450.6C223.24 450.38 223.34 450.11 223.34 449.82000000000005C223.34 449.52000000000004 223.24 449.26000000000005 223.03 449.03000000000003L219 445.03000000000003H231.37C231.69 445.03000000000003 231.95000000000002 444.92 232.16 444.71000000000004C232.35999999999999 444.49 232.47 444.23 232.47 443.94000000000005C232.47 443.62000000000006 232.35999999999999 443.36000000000007 232.16 443.15000000000003C231.95 442.95000000000005 231.69 442.84000000000003 231.37 442.84000000000003Z " fill="#9dc400" fill-opacity="1" transform="matrix(1,0,0,1,-215,-437)"></path></svg>